# xmcd
#
# Track frame offsets:
#	150
#	17962
#	39266
#	76041
#	91336
#	117203
#	140376
#	169156
#	200432
#
# Disc length: 2867 seconds
#
# Revision: 1
# Processed by: cddbd v1.5.2PL0 Copyright (c) Steve Scherf et al.
# Submitted via: audiograbber 1.83.01
#
DISCID=680b3109
DTITLE=Grateful Dead - 70-04-09 Fillmore West, San Francisco CA
DYEAR=1900
DGENRE=
TTITLE0=Me and My Uncle
TTITLE1=Casey Jones
TTITLE2=It's A Man's World
TTITLE3=Friend Of The Devil
TTITLE4=Deep Elem Blues
TTITLE5=Candyman
TTITLE6=Black Peter
TTITLE7=Uncle John's Band
TTITLE8=Katie Mae
EXTD=
EXTT0=
EXTT1=
EXTT2=
EXTT3=
EXTT4=
EXTT5=
EXTT6=
EXTT7=
EXTT8=
PLAYORDER=
